<?xml version="1.0" encoding="utf-8"?>
<!-- Generator: Adobe Illustrator 19.0.0, SVG Export Plug-In . SVG Version: 6.00 Build 0)  -->
<svg version="1.1" id="layer_1" xmlns="http://www.w3.org/2000/svg" xmlns:xlink="http://www.w3.org/1999/xlink" x="0px" y="0px"
	 viewBox="52 70.9 700 700" style="enable-background:new 52 70.9 700 700;" xml:space="preserve">
<style type="text/css">
	.st0{fill:#92CAEF;}
</style>
<path class="st0" d="M406.7,152.9c-139.2,0-252,112.8-252,252s112.8,252,252,252s252-112.8,252-252S545.8,152.9,406.7,152.9z
	 M259.1,523.8c9.3-2.6,19.1-4.7,25.5-10.2c26.7-32.6,40.4-88.3,50.4-139.8c4.2-21.4,8.7-43.9,13.6-67.3
	c3.6-17.4,13.1-69.6,36.2-54.9c10.9,6.9,16.3,24.9,20.9,41.3c9.3,33.2,16.3,64.8,24.9,98.5c3.5,13.9,9.1,34.6,17,44.7
	c2.4,3,7.3,7.3,10.7,8.5c6.9,2.3,14.7-0.5,21.5,1.1c11.6,2.8,18.8,16.5,24.9,27.7c5.9,10.7,12.7,23.8,19.8,32.3
	c8.9,10.6,18.3,16.8,37.9,17.6C462.4,524.6,360,523.4,259.1,523.8L259.1,523.8z"/>
</svg>
